<svg height='100px' width='100px'  fill="#333333" xmlns="http://www.w3.org/2000/svg" xmlns:xlink="http://www.w3.org/1999/xlink" viewBox="0 0 24 24" version="1.1" x="0px" y="0px"><title>icon/mailbox</title><desc>Created with Sketch.</desc><g stroke="none" stroke-width="1" fill="none" fill-rule="evenodd"><path d="M13,4 L17,4 L17,3 L13,3 L13,4 Z M13,5 L13,6 L17.5,6 C19.4331424,6 21,7.56685763 21,9.5 L21,15.5 C21,15.7761424 20.7761424,16 20.5,16 L14,16 L14,20.5 C14,20.7761424 13.7761424,21 13.5,21 C13.2238576,21 13,20.7761424 13,20.5 L13,16 L12,16 L12,20.5 C12,20.7761424 11.7761424,21 11.5,21 C11.2238576,21 11,20.7761424 11,20.5 L11,16 L3.5,16 C3.22385763,16 3,15.7761424 3,15.5 L3,9.5 C3,7.56685763 4.56685763,6 6.5,6 L12,6 L12,2.5 C12,2.22385763 12.2238576,2 12.5,2 L17.5,2 C17.6380712,2 17.7630712,2.05596441 17.8535534,2.14644661 C17.9440356,2.23692881 18,2.36192881 18,2.5 L18,4.5 C18,4.63807119 17.9440356,4.76307119 17.8535534,4.85355339 C17.7630712,4.94403559 17.6380712,5 17.5,5 L13,5 Z M13,7 L13,9.5 C13,9.77614237 12.7761424,10 12.5,10 C12.2238576,10 12,9.77614237 12,9.5 L12,7 L8.94960176,7 C9.59782657,7.63523576 10,8.52060978 10,9.5 L10,15 L20,15 L20,9.5 C20,8.11914237 18.8808576,7 17.5,7 L13,7 Z M9,15 L9,9.5 C9,8.11914237 7.88085763,7 6.5,7 C5.11914237,7 4,8.11914237 4,9.5 L4,15 L9,15 Z M5.5,11 C5.22385763,11 5,10.7761424 5,10.5 C5,10.2238576 5.22385763,10 5.5,10 L7.5,10 C7.77614237,10 8,10.2238576 8,10.5 C8,10.7761424 7.77614237,11 7.5,11 L5.5,11 Z" fill="#333333" fill-rule="nonzero"></path></g></svg>